<svg width="61" height="23" viewBox="0 0 61 23" fill="none" xmlns="http://www.w3.org/2000/svg">
<path d="M19.0997 7.95186V7.89223C19.0997 3.30501 15.9094 0.455566 10.773 0.455566H0V22.5569H5.44744V15.7506H9.20096L13.6985 22.5526H20.1001L14.8207 14.7369C17.5823 13.5102 19.0997 11.1208 19.0997 7.95186ZM13.5934 8.19464C13.5934 9.81316 12.4249 11.2017 10.4704 11.2017H5.44744V5.09816H10.3821C11.849 5.09816 13.5934 5.97131 13.5934 8.13501V8.19464V8.19464Z" fill="#1E9EFF"/>
<path d="M28.3888 0.455566H22.9414V22.5569H28.3888V0.455566Z" fill="#1E9EFF"/>
<path d="M42.3979 0.455566H32.373V22.5569H42.3979C49.0979 22.5569 52.4983 17.91 52.4983 11.5083V11.4487C52.4983 5.07686 49.0979 0.455566 42.3979 0.455566ZM46.8449 11.5637C46.8449 15.1074 45.3107 17.7439 41.7758 17.7439H37.8205V5.26427H41.7758C45.3107 5.26427 46.8449 7.92205 46.8449 11.5041V11.5637Z" fill="#1E9EFF"/>
<path d="M60.9299 0.455566H55.4824V22.5569H60.9299V0.455566Z" fill="#1E9EFF"/>
</svg>
