<svg width="169" height="23" viewBox="0 0 169 23" fill="none" xmlns="http://www.w3.org/2000/svg">
<path d="M26.6345 22.6741H21.3396L16.8872 9.19385L12.4348 22.6741H7.13984L0 0.455078H5.8115L9.93797 14.1936L14.6179 0.516575V0.455078H19.1626L23.8425 14.1628L27.969 0.455078H33.7805L26.6345 22.6741Z" fill="#141414"/>
<path d="M41.425 9.25535H51.2031V13.9353H41.425V17.7666H52.6298V22.5388H35.9395V0.455078H52.636V5.22727H41.425V9.25535Z" fill="#141414"/>
<path d="M75.2424 16.4013C75.2424 20.0727 72.2844 22.5388 67.3154 22.5388H55.7539V0.455078H66.6697C71.4419 0.455078 74.2707 2.73048 74.2707 6.33422C74.2707 8.38208 73.133 10.4914 71.1836 11.1741C73.8772 11.7583 75.2424 14.0337 75.2424 16.4013ZM61.2395 9.45214H65.821C67.8689 9.45214 69.0066 8.51123 69.0066 7.07834C69.0066 5.68235 67.9365 4.93208 65.821 4.93208H61.2395V9.45214ZM66.602 17.9941C68.8405 17.9941 69.8491 16.9856 69.8491 15.688C69.8491 14.3227 68.7114 13.6401 66.7004 13.6401H61.2456V17.9941H66.602V17.9941Z" fill="#141414"/>
<path d="M88.666 5.35642V22.5388H83.1743V5.35642H76.1328V0.455078H95.689V5.36256H88.666V5.35642Z" fill="#141414"/>
<path d="M119.877 11.5C119.877 17.9326 114.841 23 108.15 23C101.489 23 96.459 17.9326 96.459 11.5C96.459 5.06738 101.496 0 108.15 0C114.847 0 119.877 5.06738 119.877 11.5ZM114.293 11.5C114.293 8.0254 111.729 5.10428 108.156 5.10428C104.583 5.10428 102.018 8.0254 102.018 11.5C102.018 14.9746 104.583 17.9019 108.156 17.9019C111.729 17.9019 114.293 14.9746 114.293 11.5Z" fill="#141414"/>
<path d="M145.682 11.5C145.682 17.9326 140.645 23 133.954 23C127.294 23 122.264 17.9326 122.264 11.5C122.264 5.06738 127.3 0 133.954 0C140.645 0 145.682 5.06738 145.682 11.5ZM140.098 11.5C140.098 8.0254 137.533 5.10428 133.96 5.10428C130.387 5.10428 127.823 8.0254 127.823 11.5C127.823 14.9746 130.387 17.9019 133.96 17.9019C137.533 17.9019 140.098 14.9746 140.098 11.5Z" fill="#141414"/>
<path d="M168.915 22.5388H164.66L154.07 10.4238V22.5388H148.578V0.455078H152.766L163.417 12.896V0.455078H168.909V22.5388H168.915Z" fill="#141414"/>
<path fill-rule="evenodd" clip-rule="evenodd" d="M108.149 23C114.84 23 119.877 17.9326 119.877 11.5C119.877 5.06738 114.846 0 108.149 0C101.495 0 96.4585 5.06738 96.4585 11.5C96.4585 17.9326 101.489 23 108.149 23ZM108.155 5.10428C111.728 5.10428 114.293 8.02541 114.293 11.5C114.293 14.9746 111.728 17.9018 108.155 17.9018C104.582 17.9018 102.018 14.9746 102.018 11.5C102.018 8.02541 104.582 5.10428 108.155 5.10428ZM26.6345 22.674H21.3396L16.8872 9.19379L12.4348 22.674H7.13984L0 0.455021H5.8115L9.93796 14.1935L14.6179 0.516519V0.455021H19.1625L23.8426 14.1628L27.9689 0.455021H33.7804L26.6345 22.674ZM41.425 9.25529H51.2031V13.9352H41.425V17.7666H52.6297V22.5388H35.9393V0.455021H52.636V5.22721H41.425V9.25529ZM67.3152 22.5388C72.2841 22.5388 75.2422 20.0727 75.2422 16.4013C75.2422 14.0336 73.8769 11.7582 71.1833 11.174C73.1328 10.4914 74.2705 8.38203 74.2705 6.33417C74.2705 2.73042 71.4417 0.455021 66.6695 0.455021H55.7537V22.5388H67.3152ZM65.8208 9.45208H61.2392V4.93203H65.8208C67.9363 4.93203 69.0063 5.68229 69.0063 7.07828C69.0063 8.51117 67.8686 9.45208 65.8208 9.45208ZM69.8489 15.6878C69.8489 16.9855 68.8402 17.9941 66.6019 17.9941H61.2453V13.64H66.7002C68.7111 13.64 69.8489 14.3227 69.8489 15.6878ZM88.6667 5.36251V22.5388H83.1751V5.35636H76.1335V0.455021H95.6898V5.36251H88.6667ZM145.681 11.5C145.681 17.9326 140.644 23 133.953 23C127.293 23 122.263 17.9326 122.263 11.5C122.263 5.06738 127.299 0 133.953 0C140.644 0 145.681 5.06738 145.681 11.5ZM140.097 11.5C140.097 8.02541 137.532 5.10428 133.96 5.10428C130.387 5.10428 127.822 8.02541 127.822 11.5C127.822 14.9746 130.387 17.9018 133.96 17.9018C137.532 17.9018 140.097 14.9746 140.097 11.5ZM164.659 22.5388H168.909V0.455021H163.417V12.8959L152.765 0.455021H148.577V22.5388H154.069V10.4237L164.659 22.5388Z" fill="#141414"/>
</svg>
