<svg viewBox="0 0 50 10" xmlns="http://www.w3.org/2000/svg" fill="#d1d5d9"><path d="M8.089,9.755L5,8.308L1.91,9.755l0.423-3.387L0,3.876l3.352-0.645L5,0.245l1.647,2.987L10,3.876L7.666,6.368L8.089,9.755z M28.09,9.755L25,8.308l-3.09,1.447l0.423-3.387L20,3.876l3.352-0.645L25,0.245l1.647,2.987L30,3.876l-2.334,2.492L28.09,9.755z M18.09,9.755L15,8.308l-3.09,1.447l0.423-3.387L10,3.876l3.352-0.645L15,0.245l1.647,2.987L20,3.876l-2.334,2.492L18.09,9.755z M38.09,9.755L35,8.308l-3.09,1.447l0.422-3.387L30,3.876l3.352-0.645L35,0.245l1.647,2.987L40,3.876l-2.334,2.492L38.09,9.755z M48.09,9.755L45,8.308l-3.09,1.447l0.422-3.387L40,3.876l3.352-0.645L45,0.245l1.647,2.987L50,3.876l-2.334,2.492L48.09,9.755z"/></svg>