<?xml version="1.0" encoding="utf-8"?>
<!-- Generator: Adobe Illustrator 26.2.1, SVG Export Plug-In . SVG Version: 6.00 Build 0)  -->
<svg version="1.1" id="Layer_1" xmlns="http://www.w3.org/2000/svg" xmlns:xlink="http://www.w3.org/1999/xlink" x="0px" y="0px"
	 viewBox="0 0 103.5 19.1" style="enable-background:new 0 0 103.5 19.1;" xml:space="preserve">
<style type="text/css">
	.st0{fill:#1E9EFF;}
	.st1{fill:#141414;}
</style>
<path class="st0" d="M19,11.9c-1.1,4.4-4.9,7.3-9.3,7.3C3.9,19.1,0,14.5,0,9.5C0,4.8,3.6,0,9.7,0c5.8,0,8.9,4.5,9.4,7.4h-4.9
	C13.6,6,12.2,4.1,9.6,4.1c-3.2,0-4.9,2.8-4.9,5.4c0,2.8,1.9,5.5,5,5.5c2.9,0,4.1-2.5,4.4-3.1H19z"/>
<path class="st0" d="M20.7,9.8c0-6,4.6-9.8,9.7-9.8c5.7,0,9.7,4.4,9.7,9.6s-4,9.6-9.8,9.6C24.6,19.1,20.7,14.5,20.7,9.8L20.7,9.8z
	 M25.4,9.5c0,2.8,1.9,5.5,5.1,5.5c3.3,0,5-3,5-5.4c0-2.4-1.6-5.5-5-5.5C27.2,4.1,25.4,6.9,25.4,9.5L25.4,9.5z"/>
<path class="st0" d="M44.2,4.5h-3.6V0.3h12v4.1h-3.6v14.3h-4.7V4.5z"/>
<path class="st0" d="M56.6,18.8h-5.1l7.3-18.4h4.1l7.1,18.4h-5.2l-0.9-2.7h-6.5L56.6,18.8z M60.6,6l-2,6.4h4.1L60.6,6z"/>
<path class="st0" d="M72.3,0.3H77v8.3l5.3-8.3h4.9l-6.1,9.2l6.7,9.3h-5.7l-5.1-8v8h-4.7V0.3z"/>
<path class="st0" d="M94.1,0.3v11.1c0,0.6,0,1.5,0.3,2.2c0.3,0.7,0.9,1.3,2.1,1.3c1.2,0,1.8-0.5,2-1.2c0.3-0.7,0.3-1.6,0.3-2.3V0.3
	h4.7v11.1c0,3.1-0.7,4.5-1.8,5.7c-1.2,1.2-2.9,2-5.2,2c-1.3,0-3.8-0.3-5.3-2c-1.5-1.7-1.8-3-1.8-5.7V0.3H94.1z"/>
</svg>
