<?xml version="1.0" encoding="utf-8"?>
<!-- Generator: Adobe Illustrator 26.2.1, SVG Export Plug-In . SVG Version: 6.00 Build 0)  -->
<svg version="1.1" id="Layer_1" xmlns="http://www.w3.org/2000/svg" xmlns:xlink="http://www.w3.org/1999/xlink" x="0px" y="0px"
	 viewBox="0 0 75.8 18.4" style="enable-background:new 0 0 75.8 18.4;" xml:space="preserve">
<style type="text/css">
	.st0{fill:#1E9EFF;}
	.st1{fill:#141414;}
</style>
<path class="st1" d="M5.6,4.1H0V0h16v4.1h-5.6v14.3H5.6V4.1z"/>
<path class="st1" d="M17,9.4c0-6,4.6-9.8,9.7-9.8c5.7,0,9.7,4.4,9.7,9.6s-4,9.6-9.8,9.6C20.9,18.8,17,14.2,17,9.4L17,9.4z M21.7,9.2
	c0,2.8,1.9,5.5,5.1,5.5c3.3,0,5-3,5-5.4c0-2.4-1.6-5.5-5-5.5C23.4,3.8,21.7,6.6,21.7,9.2L21.7,9.2z"/>
<path class="st1" d="M38.2,9.4c0-6,4.6-9.8,9.7-9.8c5.7,0,9.7,4.4,9.7,9.6s-4,9.6-9.8,9.6C42.1,18.8,38.2,14.2,38.2,9.4L38.2,9.4z
	 M42.9,9.2c0,2.8,1.9,5.5,5.1,5.5c3.3,0,5-3,5-5.4c0-2.4-1.6-5.5-5-5.5C44.7,3.8,42.9,6.6,42.9,9.2L42.9,9.2z"/>
<path class="st1" d="M71.3,11.2L71.2,0h4.5v18.4h-4.1L64.6,7.3l0.1,11.1h-4.5V0h4.1L71.3,11.2z"/>
</svg>
