<?xml version="1.0" encoding="utf-8"?>
<!-- Generator: Adobe Illustrator 26.2.1, SVG Export Plug-In . SVG Version: 6.00 Build 0)  -->
<svg version="1.1" id="Layer_1" xmlns="http://www.w3.org/2000/svg" xmlns:xlink="http://www.w3.org/1999/xlink" x="0px" y="0px"
	 viewBox="0 0 78.5 20" style="enable-background:new 0 0 78.5 20;" xml:space="preserve">
<style type="text/css">
	.st0{fill:#1E9EFF;}
	.st1{fill:#141414;}
</style>
<path class="st1" d="M5.9,4.7H0V0.4h16.6v4.3h-5.8v14.8H5.9V4.7z"/>
<path class="st1" d="M17.6,10.1C17.6,3.9,22.4,0,27.7,0c5.9,0,10.1,4.6,10.1,9.9s-4.2,9.9-10.1,9.9C21.6,19.8,17.6,15.1,17.6,10.1
	L17.6,10.1z M22.5,9.9c0,2.9,2,5.7,5.3,5.7c3.5,0,5.1-3.2,5.1-5.6c0-2.5-1.7-5.7-5.2-5.7C24.3,4.3,22.5,7.2,22.5,9.9L22.5,9.9z"/>
<path class="st1" d="M39.6,10.1C39.6,3.9,44.4,0,49.7,0c5.9,0,10.1,4.6,10.1,9.9s-4.2,9.9-10.1,9.9C43.6,19.8,39.6,15.1,39.6,10.1
	L39.6,10.1z M44.5,9.9c0,2.9,2,5.7,5.3,5.7c3.5,0,5.1-3.2,5.1-5.6c0-2.5-1.7-5.7-5.2-5.7C46.3,4.3,44.5,7.2,44.5,9.9L44.5,9.9z"/>
<path class="st1" d="M74,12L73.9,0.4h4.7v19.1h-4.2L67,8l0.1,11.5h-4.7V0.4h4.2L74,12z"/>
</svg>
